<svg version="1.1" id="Layer_1" xmlns="http://www.w3.org/2000/svg" x="0" y="0" viewBox="0 0 100.354 100.352" xml:space="preserve"><path d="M86.854 16.297H13.148a1.5 1.5 0 00-1.5 1.5v64.404a1.5 1.5 0 001.5 1.5h73.706a1.5 1.5 0 001.5-1.5V17.797a1.5 1.5 0 00-1.5-1.5zm-1.5 3V33.86H14.648V19.297h70.706zM14.648 80.701V36.86h70.706v43.841H14.648z"/><path d="M20.728 27.68h5.534a1.5 1.5 0 100-3h-5.534a1.5 1.5 0 100 3zm11.861 0h5.535a1.5 1.5 0 100-3h-5.535a1.5 1.5 0 100 3zm29.983 29.768L43.23 44.182a1.501 1.501 0 00-2.349 1.237v25.013a1.5 1.5 0 002.279 1.282l19.341-11.746c.436-.265.707-.731.721-1.24.015-.51-.23-.992-.65-1.28zm-18.69 10.318V48.267L58.96 58.609l-15.078 9.157z"/></svg>