<svg version="1.1" id="Layer_1" xmlns="http://www.w3.org/2000/svg" x="0" y="0" viewBox="0 0 100.75 100.748" xml:space="preserve"><path d="M72.294 76.276H29.422a1.5 1.5 0 100 3h42.872a1.5 1.5 0 000-3z"/><path d="M73.97 63.998c5.013-5.635 8.068-13.05 8.068-21.168V32.427a1.5 1.5 0 00-1.5-1.5H19.765a1.5 1.5 0 00-1.5 1.5v1.969c-6.56.748-11.674 6.328-11.674 13.087 0 7.265 5.91 13.176 13.174 13.176.144 0 .287-.021.425-.062l2.94-.868a32.067 32.067 0 003.203 4.269c-12.396 2.769-19.44 7.396-19.44 12.862 0 7.41 15.161 15.286 43.258 15.286 28.098 0 43.259-7.876 43.259-15.286 0-5.465-7.045-10.092-19.44-12.862zM21.265 33.927h57.772v8.903c0 8.206-3.445 15.617-8.958 20.881-.095.07-.179.152-.255.243-5.162 4.81-12.078 7.762-19.674 7.762-7.604 0-14.527-2.958-19.69-7.778a1.5 1.5 0 00-.212-.202c-5.528-5.265-8.983-12.687-8.983-20.905v-8.904zm-1.709 23.73c-5.514-.112-9.965-4.634-9.965-10.174 0-5.102 3.775-9.326 8.674-10.055v5.403c0 5.107 1.214 9.933 3.357 14.217l-2.066.609zm30.595 31.489c-23.725 0-40.258-6.475-40.258-12.286 0-3.937 7.593-8.047 18.962-10.323 5.65 5.08 13.117 8.178 21.295 8.178 8.179 0 15.647-3.098 21.297-8.179 11.37 2.279 18.963 6.389 18.963 10.324 0 5.812-16.534 12.286-40.259 12.286zm-14.368-65.29a1.5 1.5 0 001.5-1.5V8.109a1.5 1.5 0 10-3 0v14.247a1.5 1.5 0 001.5 1.5zm15.075 0a1.5 1.5 0 001.5-1.5V8.109a1.5 1.5 0 10-3 0v14.247a1.5 1.5 0 001.5 1.5zm15.075-.005a1.5 1.5 0 001.5-1.5V8.103a1.5 1.5 0 10-3 0v14.248a1.5 1.5 0 001.5 1.5z"/></svg>