<svg version="1.0" xmlns="http://www.w3.org/2000/svg" width="273.333" height="236" viewBox="0 0 205 177"><g fill="#fff"><path d="M56.5.6c-4 .9-11.4 4.7-10.9 5.5.3.5-.1.6-.8.4-1.7-.7-19.6 15.1-23 20.2C12.9 40.1 9.3 48.8 4.9 68c-1 4.7-2.4 10.5-3 13-1.8 6.9-2.3 34.5-.9 43 3.5 20.6 25.1 47.6 40.8 50.9 6.6 1.4 34.1 1.4 40.2 0 6.1-1.3 10.7-3.6 11.4-5.5.4-.9.9-1.5 1.2-1.2 1.3 1.3 21.4-22.3 21.4-25.1 0-.5 1.1-1.9 2.5-3.2 2-2 2.5-3.4 2.5-7.7V127h-15.8l-5.9 5.9c-3.2 3.2-6.9 6.1-8.1 6.5-1.2.4-2.2 1.2-2.2 1.7 0 1.4-4.3 1-6.4-.6-1.1-.8-3-1.5-4.3-1.5-1.3 0-2.3-.4-2.3-.8 0-.5-1.2-1.5-2.6-2.2-3.1-1.7-5.7-6.6-9.7-18-2.9-8.2-2.9-8.8-2.3-21.5 1.3-27.3 12.3-54.4 24.8-61.1 3.8-2 17.6-1.9 19.8.1 1.2 1.1 4.8 1.8 10.5 2.2l8.8.6-.7-5.9c-1.3-11-2.5-13.4-10.6-21.2C102.8.2 103.9.6 79.5.3 67.9.2 57.6.3 56.5.6zM78 3.5c0 .8-1.2 2.1-2.7 2.9-1.6.8-3.8 2.4-5.1 3.6-1.3 1.2-2.9 1.9-3.7 1.6-1.1-.4-.7-1.3 1.6-3.6 1.7-1.6 3.6-3 4.4-3 .7 0 1.5-.7 1.9-1.5.7-1.9 3.6-2 3.6 0zM63 7c-1.4 1.1-3.3 2.2-4.2 2.6-1 .3-1.8 1-1.8 1.5s-.9.9-1.9.9c-1 0-2.1.7-2.5 1.5-.7 1.9-3.6 2-3.6.1 0-.8.8-1.7 1.8-2 1-.4 3.1-2 4.7-3.6 2.2-2.2 3.8-3 6.4-3h3.6L63 7zm35.4.2c2.2.7 4.7 1.8 5.6 2.5 7.2 6 12.1 11 13.4 13.8.9 1.9 2.1 3.7 2.6 4 .6.3 1 1.7 1 3.1 0 2.3-.3 2.4-6.3 2.4-5.1 0-6.8-.4-8.2-2-1.5-1.7-3.1-2-10.5-2-8.5 0-8.8.1-14.3 4-5.3 3.8-10.3 10.7-14.4 20-5.7 12.7-9.7 32.1-9.6 46.5.1 17.3.2 18.5 1.1 18.5.6 0 1.3 1.5 1.6 3.3.9 5 7.9 17.1 10.6 18.5.3.1 2.7 1.6 5.4 3.3 3.8 2.4 6.2 3.2 10.3 3.3 3.1 0 5.3-.3 5.3-.9 0-.6 1.2-1.8 2.8-2.7 1.5-.9 5-3.7 7.7-6.2 4.3-3.9 5.6-4.5 9.3-4.6 3.6 0 4.2.3 4.2 2.1 0 1.1-.8 3.3-1.8 4.7-1 1.5-2.4 3.9-3.2 5.5-1.4 2.9-15 18.3-17.8 20.3-5.5 3.8-9.6 5.4-14.2 5.4-2.7 0-5.2-.5-5.5-1-.4-.6-1-.8-1.5-.5-.4.3-1.3-.2-2-1s-1.7-1.5-2.3-1.5c-.5 0-3.8-2.4-7.2-5.2-6.5-5.5-12.1-13.4-13.1-18.7-.4-1.8-1.3-3.1-2.1-3.1-.9 0-1.3-.6-1-1.5.4-.8.2-1.7-.2-2-1.6-.9-4-10-5.7-21.5-3.4-23.7 0-49.3 9.2-68.7 2.4-5.1 4.4-9.5 4.4-9.8 0-2.9 19.6-23.4 24.4-25.6 1.2-.6 3.2-1.6 4.6-2.4 3.1-1.8 11.9-1.9 17.4-.3zM46 11.8c0 1.1-5 5.5-5.6 4.9-.6-.6 3.6-5.7 4.7-5.7.5 0 .9.4.9.8zm17.6 1.5c.7 1.9-7.6 10.1-8.9 8.8-.6-.6.4-2.6 2.8-5.5 3.9-4.8 5.2-5.5 6.1-3.3zM38 17.5c-.7.9-1.5 1.3-1.9 1-.3-.3.1-1 .9-1.5 2.1-1.4 2.4-1.2 1 .5zm9.9 1.7c1 1.6 1.1 2.3.2 2.6-.6.2-2.5 1.5-4 2.8-3.5 2.9-4.1 3-4.1.5 0-1.7 4.7-8.1 6-8.1.3 0 1.1 1 1.9 2.2zM36 22.7c0 .5-1.5 2.6-3.3 4.7-2.4 2.8-3.9 3.8-5.1 3.3-1.6-.6-1.5-1.1 1.1-4.7 1.8-2.6 3.6-4 5.1-4 1.2 0 2.2.3 2.2.7zm15.3 8.6c-2.8 5.7-3.8 6.4-5.7 3.5-.8-1.3-.1-2.6 3-6.1 2.1-2.4 4.2-4.1 4.7-3.7.4.3-.5 3.2-2 6.3zm-13.1.8c1.3.9-2.4 6.9-4.3 6.9-2.2 0-3.2-3.9-1.3-4.7.8-.3 1.4-1.1 1.4-1.7 0-.7.6-1.8 1.2-2.4 1-1 1.4-1 1.7 0 .2.7.8 1.6 1.3 1.9zm-13.6 8.4c-2.4 4.6-7 8.3-8.1 6.5-.3-.5.6-2.5 2-4.6 1.4-2 2.5-4.1 2.5-4.5 0-.5.9-.9 1.9-.9 1.1 0 2.3-.5 2.6-1.1.4-.6.9-.8 1.2-.6.2.3-.7 2.6-2.1 5.2zm20.7-1.3c.8 1.1.2 3.4-1.9 8.2-2.6 6.1-5.4 8.7-5.4 5 0-.8-.4-1.2-1-.9-1.3.8-1.3 0 0-2.3.5-.9 1.9-4.1 3.2-7 2.3-5.3 3.3-5.9 5.1-3zm-13.7 5.2c1.8-.5 2.4-.2 2.4 1 0 1.9-4 8.5-6.3 10.5-4 3.3-5-3.6-1.5-10.9 1.8-3.8 2.2-4.2 2.5-2.2.4 1.8.9 2.1 2.9 1.6zM16 61.1c-2.1 6.1-4.7 9.9-7 9.9-1.1 0-.8-1.6 1.9-10.6 1.2-3.8 2.5-5.9 4.2-6.8 3.3-1.7 3.5-.3.9 7.5zm21.6-3.4c2.1 3-.8 13.6-3.6 13.1-2-.4-2.4-5.2-1-10.5 1.4-4.6 2.5-5.3 4.6-2.6zM21.7 61c.6 2.3 2.3 2.6 4.1.8 3.1-3.1.4 9.2-2.8 13.1-1.7 2-2.3 2.1-3.6 1-1.2-1-1.4-2.4-.9-5.8.3-2.5.7-6.1.8-7.9.2-3.6 1.6-4.3 2.4-1.2zm-9.3 19.2c-.5 5.4-1.3 8.3-3.2 11C7.9 93.3 6.3 95 5.9 95c-1.2 0-1.1-12.7.1-13.5.5-.3.7-1.2.4-1.9-.5-1.3 4.2-6.6 5.8-6.6.5 0 .5 3.3.2 7.2zm22 1.2c-.8 6.2-1.5 7.1-4.4 5.6-1.9-1-2.1-1.6-1.4-6.8.8-7.3 1-7.5 4-5.6 2.2 1.5 2.4 2.1 1.8 6.8zm-9.8 2.3C24 89.2 20 97 17.9 97c-1.8 0-2.9-4.2-2.9-11.1v-7.2l2.3 2.1 2.3 2.2 2.4-2.5c1.3-1.4 2.6-2.5 2.8-2.5.3 0 .2 2.6-.2 5.7zM33.5 97v6.5h-3c-2.9 0-3-.1-3.3-5.4-.4-7 .2-8.3 3.5-7.9 2.7.3 2.8.4 2.8 6.8zM11 102.4c0 5.2-2.6 10.6-5.1 10.6-.5 0-.9-2.7-.9-6 0-4.7.4-6.4 2-8 3.1-3.1 4-2.4 4 3.4zm13 .3c0 2.1-1.1 5.5-2.6 8l-2.5 4.4-2-2.5c-1.3-1.7-1.9-4-1.9-7.5 0-5.2.6-6.1 2.8-3.9.9.9 1.6.8 2.9-.5 2.6-2.5 3.3-2.1 3.3 2zm10.3 9.7c.9 5.7.3 8.6-1.5 6.8-.7-.7-1.9-1.2-2.9-1.2-1.2 0-1.8-1.2-2.3-4.6-.7-5.6-.2-6.6 3.2-6.2 2.3.3 2.8.9 3.5 5.2zm-21.9 3.8c1.2 4.7.6 10.5-1.2 12.1-2.2 2-3.2 1.3-3.2-2 0-1.4-.4-3.2-1-4.2-.7-1.4-.4-2.4 1-3.9 1.1-1.2 2-2.6 2-3.2 0-1.9 1.8-1 2.4 1.2zm12.6 5.6c0 2.7-.6 5.6-1.3 6.6-1.2 1.6-1.4 1.5-3.3-1.1-1.1-1.5-2.3-3.8-2.6-5.1-.5-1.8-.2-2.2 1.8-2.2 1.4 0 2.7-.7 3-1.5 1.2-3 2.4-1.4 2.4 3.3zm12 6.4c.7 2.9 1.5 5.9 1.7 6.5.3.8-.4 1.3-2 1.3-3 0-3.5-.7-5.8-7.2-1.9-5.2-1.7-5.8 2.1-5.8 2.3 0 2.8.6 4 5.2zm-19.6 11.3c.1 3-.3 4-1.4 4-.8 0-1.6-1-1.8-2.3-.2-1.2-.8-2.2-1.3-2.2-1.5 0-1-4.9.8-7.7l1.8-2.6.8 3.4c.5 1.9 1 5.2 1.1 7.4zm11-4.9c1.2 3 .7 9.4-.7 9.4-1.8 0-4.3-2.8-5.6-6.3-1-2.6-.9-2.7 1.4-2.1 1.9.5 2.5.2 2.5-1 0-2.1 1.6-2.1 2.4 0zm12.4 6.1c.6 1 1.3 3.3 1.7 5 .6 2.9.4 3.3-1.4 3.3-1.4 0-2.5-1.1-3.6-3.6-.8-2-1.5-4.3-1.5-5 0-2 3.8-1.7 4.8.3zm-3.5 11.9c1 1.1.9 6.4-.2 6.4-1.2 0-7.1-5.9-7.1-7.1 0-.5.7-1.2 1.5-1.5.9-.4 1.5-1.9 1.6-3.8v-3.1l1.7 4.2c.9 2.3 2 4.5 2.5 4.9zm-12.2 0c2.7 5.6 1.9 6.7-1.8 2.4-3.2-3.8-4.2-6-3.5-7.8.7-1.9 2.7.2 5.3 5.4zm22.5 1.9c1.7 3.6 5.3 7.1 15.8 15.3 2.4 1.8 2.5 2.2 1 2.2-4.1 0-24.4-17.6-23-19.8 1.4-2.4 4.5-1.2 6.2 2.3zM45 161c.6 1 3 3.3 5.5 5 2.5 1.7 4.5 3.7 4.5 4.5 0 2.5-3.7 1.7-8.4-1.8-3.7-2.6-4.5-3.8-4.5-6.5-.1-3.6 1.3-4.2 2.9-1.2zm-10.3 2c1.4 1.6 3.2 3 4 3 .7 0 1.3.7 1.3 1.5 0 1.9-3.6 2-4.7.2-.4-.8-2-2.2-3.5-3.2-1.6-.9-2.8-2.4-2.8-3.1 0-2.4 2.9-1.6 5.7 1.6z"/><path d="M80.5 57.4c-1.2 1.8-1.5 4.7-1.3 13.2l.3 10.9 8.8.3c4.9.1 8.7.6 8.5 1-8.5 16.3-12 26.2-11.6 32.8l.3 4.9h8.7c4.7 0 8.9-.3 9.2-.6.3-.3 1.3-4.3 2.2-9 1.4-7.8 7.8-24.9 9.3-24.9.3 0 1.2-1.3 1.9-2.8.6-1.6 2.1-3.7 3.1-4.9 3.8-4 7.1-13.8 7.1-20.8V55H82l-1.5 2.4zm42.5 6.3c0 5.6-.2 6.1-6.3 13.8-7.5 9.5-13.8 23.8-14.5 32.7l-.4 5.8H89v-3.3c0-1.7 1.1-6.1 2.4-9.7 4.2-11.2 9.3-24.4 11-28.1 2.5-5.9-.5-6.9-4.3-1.4-2.3 3.4-2.6 3.5-8.7 3.5H83V58h40v5.7zm8.8 7.5c-3.9 4.2-5.4 7.3-6.1 13-.7 5.1.8 10.8 2.8 10.8.7 0 1.5.7 1.9 1.5.4 1.2-.3 1.5-3.2 1.5-5.4 0-6.2 1.3-6.2 9.7 0 6.7.2 7.6 2.6 9.8 2.5 2.4 3.4 2.5 14.5 2.5 8.3 0 12-.4 12.6-1.3.4-.6 1.6-1.7 2.7-2.2 2.6-1.5 5.6-10.1 5.6-16.5 0-4.7-.4-5.8-2.5-7.4-3.6-2.7-3.2-4.6 1-4.6h3.5v-8.5c0-7.3-.3-8.6-1.7-9.1-1-.3-2.6-1-3.5-1.5-1-.5-6.1-.9-11.4-.9-9.5 0-9.6 0-12.6 3.2zm23.2 2.1c2.1 1.1 2.5 2.1 2.8 6.5l.3 5.2h-4.5c-3.9 0-4.5-.3-4.8-2.3-.2-1.7-1.1-2.3-3.6-2.5-2.7-.3-3.4.1-4.2 2.3-1.7 4.3-1.2 5.2 3.5 6.5 2.4.7 5 1.9 5.7 2.7.7.8 2.2 1.9 3.5 2.4 2 .7 2.3 1.5 2.3 6.3 0 3-.4 5.8-1 6.1-.5.3-1 1.4-1 2.4s-1.4 3-3.2 4.5c-2.8 2.3-4 2.6-10.7 2.6-15 0-16-.6-16.4-9.8l-.2-4.2h5.2c2.9 0 6.3.5 7.7 1.1 3 1.4 7.6.4 7.6-1.7 0-2.2-2-3.9-6.2-5.3-2-.7-4.8-2.1-6.2-3.2-2.2-1.8-2.6-2.8-2.6-7.5 0-4.8.4-5.8 3.6-9.4l3.6-4h8.2c4.5 0 9.2.6 10.6 1.3zm8.8-2.6c-.1 1.6 0 5.8.1 9.5.2 3.7-.1 7.2-.5 8-.4.7-.7 2.9-.5 5 .2 2.4-.2 3.8-.9 3.8-.9 0-1.1 2.5-.8 8.9.3 7.8.6 9.1 2.8 11.4 2.4 2.6 2.9 2.7 13.3 2.7 10.5 0 10.8-.1 11.9-2.5.6-1.4 1.5-2.5 1.9-2.5 1.3 0 4.9-8.6 5.9-13.9 1.6-8.5 2.1-10.6 3.2-14.6.6-2.2 1.7-4.7 2.4-5.5.7-.8 1.5-4.1 1.9-7.3l.7-5.7H164l-.2 2.7zM181 74c0 1.2-.8 3.5-1.7 5.3-2.3 4.2-3.9 12.4-4.2 20.8l-.2 6.9h4c3.5 0 4.1-.3 4.1-2.1 0-1.2.7-4.8 1.5-8.1.9-3.2 1.9-10.1 2.3-15.1l.7-9.2 7.3-.3c7.2-.3 7.2-.3 7.2 2.3 0 1.4-.8 3.5-1.8 4.6-2.4 2.5-3.9 7.4-5.3 17.5-2 14.8-4.9 18.6-14.6 19.2-3.4.3-8.3.1-10.7-.2-4-.6-4.6-1.1-5.6-4.2-.9-2.6-.9-4.7-.1-7.9.6-2.4 1.1-6 1.1-7.9 0-2 .7-5.4 1.7-7.7 1.3-3.3 1.4-4.6.5-6-1.3-2-1.6-8.1-.5-9.2.3-.4 3.7-.7 7.5-.7 6.2 0 6.8.2 6.8 2zm2.6 10.2c-.3 2.4-.9 7.8-1.3 12.1-.6 7.8-2 10.4-4.4 8-1-1 1.2-16.9 3.1-21.8 1.6-4.2 3.3-3 2.6 1.7z"/></g></svg>