<svg version="1.1" id="Capa_1" xmlns="http://www.w3.org/2000/svg" x="0" y="0" width="66.506" height="66.506" xml:space="preserve"><path d="M21 0c2.271 0 4.405.884 6.011 2.489l24.506 24.506a8.52 8.52 0 012.479 6.255 8.533 8.533 0 01-2.479 6.261L27.01 64.018c-1.605 1.604-3.739 2.488-6.01 2.488s-4.405-.884-6.01-2.488c-3.314-3.314-3.314-8.707 0-12.021l18.743-18.743L14.99 14.511c-3.314-3.314-3.314-8.707 0-12.021A8.445 8.445 0 0121 0zm0 62.506a4.477 4.477 0 003.182-1.316l24.033-24.506c.891-.894.833-2.084.833-3.355v-.151c0-1.271.058-2.461-.833-3.353L23.945 5.317C23.095 4.467 22.083 4 20.882 4c-1.203 0-2.273.468-3.123 1.317-1.755 1.755-1.725 4.61.03 6.365l20.172 20.156a2 2 0 01.007 2.828L17.815 54.822a4.507 4.507 0 00.001 6.365A4.472 4.472 0 0021 62.506z"/></svg>