<svg version="1.0" xmlns="http://www.w3.org/2000/svg" width="1200" height="1200" viewBox="0 0 900 900"><path d="M419 1.1C356.6 6.3 306.9 19.6 254.2 45 162.4 89.3 89.7 161.9 45.5 253.4c-61 125.8-60.6 270.5.9 395.2 35.4 71.7 89.1 133 154.3 176 24.4 16.1 57 33.2 82.3 43.2C430.2 926 594.8 904 720.7 809.3c56.5-42.5 101.9-97.5 133.4-161.6 51.3-104.6 59.9-226 23.7-336.7C846 213.7 783.7 131.5 699 75.3 649.8 42.6 591 18.6 534.5 8.1c-38-7.1-82.7-9.8-115.5-7zM465.5 113c37 1.9 69.5 8.4 102.5 20.7 85.3 31.7 156.6 99.8 192.5 183.8 15.8 37 24.4 74.6 26.4 115.8 5.4 110.3-41.8 213.4-129.4 282.8-10.8 8.5-31.5 22.2-45 29.7-84.3 47-188.9 54.6-280.5 20.5-65.1-24.2-123.1-70.2-162.5-128.8-40.6-60.4-60.2-131.4-56.4-204.5 1.7-33.5 7.2-62.6 17.8-93.1 44.6-129 164.2-219.6 299.6-226.8 8.3-.4 15.2-.9 15.5-.9.3-.1 9.1.3 19.5.8z"/><path d="M434 143.1c-55.9 2.8-107.2 19.9-154.5 51.4-76.8 51.1-126.4 133.9-135.5 226-2.3 22.9-1.2 56.3 2.6 79.5C169 636.9 282.7 743 421 756c14.9 1.4 44.6 1.4 59.1 0 30.9-3.1 61.6-10.9 89.9-23 103.5-44.2 175-141.6 186-253.3 1.4-14 1.4-44 0-58.7-7.7-82.3-49-158.8-113.8-210.8-49.5-39.7-112.9-64.2-172.7-66.7-7.1-.3-14.8-.7-17-.9-2.2-.1-10.5.1-18.5.5zm-4.4 82.6c1.9 12.8-1.9 71.5-5.6 87.3-2.5 10.2-9.6 21-17.8 26.9-1.6 1.1-5.6 2.7-8.8 3.6-7.3 1.9-14.6.9-29.4-4.1-19.5-6.5-26.4-10.8-53.5-33.4-13.5-11.3-24.5-20.7-24.5-21 0-.3 3-3.3 6.8-6.6 33.9-30 74.8-49.2 119.2-55.9 13.5-2 12.8-2.2 13.6 3.2zm60.9-2.1c31.7 5.4 65.5 19.5 92.3 38.5 9.9 7.1 23.6 18.5 30.1 25.3l4.4 4.5-2.4 2.1c-22.7 19.4-53.8 41.4-70.9 50-17.4 8.8-33.5 7.8-44.5-2.8-8.8-8.5-15.8-23.4-19.7-42.2-1.9-8.9-1.9-11.8-1.3-43.3.5-24 1.1-33.7 1.9-33.7.6 0 5.2.7 10.1 1.6zM266.8 328.7c14.6 10.7 30.7 24.8 45.8 39.8 11.8 11.7 16.2 16.9 20.5 24 5.2 8.6 5.4 9.3 5.7 17.1.3 6.6 0 9-1.8 13.1-3.9 9.3-19.7 22.1-38.4 31.3-10 4.9-11.8 5.4-42.3 11.6-17.5 3.5-32.5 6.7-33.4 6.9-2.2.7-2.9-4.9-2.9-22.9 0-30.6 6.4-61.7 18.5-90 5.8-13.7 18.4-36.6 20.1-36.6.3 0 4 2.6 8.2 5.7zm381.6 4.6c1.1 1.7 4.5 8.4 7.6 14.7 16.1 32.2 24 66.1 24 102.2 0 11.6-1.5 30.6-2.4 31.5-.6.6-31.1-5.8-44.2-9.2-17.1-4.5-41.5-12.9-48.5-16.6-13.3-7.1-20.9-17.3-20.9-27.9 0-20.2 15.6-46.7 37.5-63.8 5.5-4.3 17.6-13.8 26.9-21 9.3-7.3 17.1-13.2 17.5-13.2.3 0 1.5 1.5 2.5 3.3zM476 365.5c31.3 9.9 53.7 34 61.7 66.1 2.5 10.2 2.3 31.3-.5 41.9-3 11.2-11 26.6-18.5 35.5-11.3 13.5-27.9 24.3-44.7 29-9.5 2.7-28.8 3.8-38.6 2.1-33-5.8-60.5-29.4-70.7-61.1-15.4-47.6 11.5-99.2 59.3-113.4 11.9-3.5 11.8-3.5 28.5-3.1 13 .2 16.1.6 23.5 3zM344.7 512.4c8.7 3.4 14.5 8.2 18 15 3.5 6.8 4.4 22.8 1.9 35.6-4 20.5-4.6 22.2-19.4 52.7-8 16.7-14.9 30.3-15.4 30.3-1.6 0-17.7-11.6-28.1-20.2-23.7-19.7-43.1-44.5-57.6-73.6-5.1-10.1-11.5-25.2-10.9-25.7.6-.6 14.6-4.5 26.3-7.3 25.6-6.4 51.6-10.2 66.5-9.8 9.7.3 12.6.8 18.7 3zm288.1 9.4c17.2 4.4 31.6 8.2 31.9 8.6 1.6 1.5-12.2 30-21.4 44.3-17.1 26.6-41.9 51.4-68.9 68.8-4.7 3-8.6 5.5-8.8 5.5-.7 0-16.9-33.5-21.4-44.5-7.1-17.2-13.9-37.9-15.2-46-1.1-6.8-.7-13.1 1-17 .5-1.1 1.6-4.4 2.5-7.3 2.1-6.7 5.2-9.6 14-13.3 15.1-6.4 24-7.9 42-7.4 12.4.3 14.5.8 44.3 8.3zM457 571.5c12.6 6.4 24.6 17 34.9 30.7 2.3 3.1 10.7 19 18.6 35.5l14.4 29.8-7.2 2.3c-36.2 11.5-80.1 13.2-118.2 4.6-11.4-2.6-26.4-7.1-27.8-8.4-2-1.8 17.3-42 30.3-63.5 12.1-20 18.5-26.9 30-32.4 6.5-3.1 17.4-2.5 25 1.4z"/><path d="M435.5 403.9c-8.8 3.2-13.4 6-19.5 12.1-9.7 9.7-14 20.2-14 34s4.3 24.3 14 34c9.5 9.5 20.3 14 33.5 14 14 0 24.9-4.4 34.5-14 15.1-15.1 18.4-37.5 8.4-57.3-3.2-6.1-13-15.9-19.1-19.1-11.6-5.8-27.4-7.4-37.8-3.7z"/></svg>