<?xml version="1.0" encoding="iso-8859-1"?>
<!-- Generator: Adobe Illustrator 21.1.0, SVG Export Plug-In . SVG Version: 6.00 Build 0)  -->
<svg version="1.1" id="Layer_1" xmlns="http://www.w3.org/2000/svg" xmlns:xlink="http://www.w3.org/1999/xlink" x="0px" y="0px"
	 viewBox="0 0 100.75 100.748" style="enable-background:new 0 0 100.75 100.748;" xml:space="preserve">
<g>
	<path d="M72.294,76.276H29.422c-0.829,0-1.5,0.672-1.5,1.5s0.671,1.5,1.5,1.5h42.872c0.828,0,1.5-0.672,1.5-1.5
		S73.122,76.276,72.294,76.276z"/>
	<path d="M73.97,63.998c5.013-5.635,8.068-13.05,8.068-21.168V32.427c0-0.829-0.672-1.5-1.5-1.5H19.765c-0.829,0-1.5,0.671-1.5,1.5
		v1.969c-6.56,0.748-11.674,6.328-11.674,13.087c0,7.265,5.91,13.176,13.174,13.176c0.144,0,0.287-0.021,0.425-0.062l2.94-0.868
		c0.95,1.513,2.021,2.941,3.203,4.269c-12.396,2.769-19.44,7.396-19.44,12.862c0,7.41,15.161,15.286,43.258,15.286
		c28.098,0,43.259-7.876,43.259-15.286C93.41,71.395,86.365,66.768,73.97,63.998z M21.265,33.927h57.772v8.903
		c0,8.206-3.445,15.617-8.958,20.881c-0.095,0.07-0.179,0.152-0.255,0.243c-5.162,4.81-12.078,7.762-19.674,7.762
		c-7.604,0-14.527-2.958-19.69-7.778c-0.064-0.074-0.135-0.142-0.212-0.202c-5.528-5.265-8.983-12.687-8.983-20.905V33.927z
		 M19.556,57.657c-5.514-0.112-9.965-4.634-9.965-10.174c0-5.102,3.775-9.326,8.674-10.055v5.403c0,5.107,1.214,9.933,3.357,14.217
		L19.556,57.657z M50.151,89.146c-23.725,0-40.258-6.475-40.258-12.286c0-3.937,7.593-8.047,18.962-10.323
		c5.65,5.08,13.117,8.178,21.295,8.178c8.179,0,15.647-3.098,21.297-8.179C82.817,68.815,90.41,72.925,90.41,76.86
		C90.41,82.672,73.876,89.146,50.151,89.146z"/>
	<path d="M35.783,23.856c0.829,0,1.5-0.671,1.5-1.5V8.109c0-0.829-0.671-1.5-1.5-1.5s-1.5,0.671-1.5,1.5v14.247
		C34.283,23.185,34.955,23.856,35.783,23.856z"/>
	<path d="M50.858,23.856c0.829,0,1.5-0.671,1.5-1.5V8.109c0-0.829-0.671-1.5-1.5-1.5s-1.5,0.671-1.5,1.5v14.247
		C49.358,23.185,50.029,23.856,50.858,23.856z"/>
	<path d="M65.933,23.851c0.828,0,1.5-0.671,1.5-1.5V8.103c0-0.829-0.672-1.5-1.5-1.5s-1.5,0.671-1.5,1.5v14.248
		C64.433,23.18,65.104,23.851,65.933,23.851z"/>
</g>
</svg>
