<?xml version="1.0" standalone="no"?>
<!DOCTYPE svg PUBLIC "-//W3C//DTD SVG 20010904//EN"
 "http://www.w3.org/TR/2001/REC-SVG-20010904/DTD/svg10.dtd">
<svg version="1.0" xmlns="http://www.w3.org/2000/svg"
 width="205.000000pt" height="177.000000pt" viewBox="0 0 205.000000 177.000000"
 preserveAspectRatio="xMidYMid meet">

<g transform="translate(0.000000,177.000000) scale(0.100000,-0.100000)"
fill="#ffffff" stroke="none">
<path d="M565 1764 c-40 -9 -114 -47 -109 -55 3 -5 -1 -6 -8 -4 -17 7 -196
-151 -230 -202 -89 -134 -125 -221 -169 -413 -10 -47 -24 -105 -30 -130 -18
-69 -23 -345 -9 -430 35 -206 251 -476 408 -509 66 -14 341 -14 402 0 61 13
107 36 114 55 4 9 9 15 12 12 13 -13 214 223 214 251 0 5 11 19 25 32 20 20
25 34 25 77 l0 52 -79 0 -79 0 -59 -59 c-32 -32 -69 -61 -81 -65 -12 -4 -22
-12 -22 -17 0 -14 -43 -10 -64 6 -11 8 -30 15 -43 15 -13 0 -23 4 -23 8 0 5
-12 15 -26 22 -31 17 -57 66 -97 180 -29 82 -29 88 -23 215 13 273 123 544
248 611 38 20 176 19 198 -1 12 -11 48 -18 105 -22 l88 -6 -7 59 c-13 110 -25
134 -106 212 -112 110 -101 106 -345 109 -116 1 -219 0 -230 -3z m215 -29 c0
-8 -12 -21 -27 -29 -16 -8 -38 -24 -51 -36 -13 -12 -29 -19 -37 -16 -11 4 -7
13 16 36 17 16 36 30 44 30 7 0 15 7 19 15 7 19 36 20 36 0z m-150 -35 c-14
-11 -33 -22 -42 -26 -10 -3 -18 -10 -18 -15 0 -5 -9 -9 -19 -9 -10 0 -21 -7
-25 -15 -7 -19 -36 -20 -36 -1 0 8 8 17 18 20 10 4 31 20 47 36 22 22 38 30
64 30 l36 0 -25 -20z m354 -2 c22 -7 47 -18 56 -25 72 -60 121 -110 134 -138
9 -19 21 -37 26 -40 6 -3 10 -17 10 -31 0 -23 -3 -24 -63 -24 -51 0 -68 4 -82
20 -15 17 -31 20 -105 20 -85 0 -88 -1 -143 -40 -53 -38 -103 -107 -144 -200
-57 -127 -97 -321 -96 -465 1 -173 2 -185 11 -185 6 0 13 -15 16 -33 9 -50 79
-171 106 -185 3 -1 27 -16 54 -33 38 -24 62 -32 103 -33 31 0 53 3 53 9 0 6
12 18 28 27 15 9 50 37 77 62 43 39 56 45 93 46 36 0 42 -3 42 -21 0 -11 -8
-33 -18 -47 -10 -15 -24 -39 -32 -55 -14 -29 -150 -183 -178 -203 -55 -38 -96
-54 -142 -54 -27 0 -52 5 -55 10 -4 6 -10 8 -15 5 -4 -3 -13 2 -20 10 -7 8
-17 15 -23 15 -5 0 -38 24 -72 52 -65 55 -121 134 -131 187 -4 18 -13 31 -21
31 -9 0 -13 6 -10 15 4 8 2 17 -2 20 -16 9 -40 100 -57 215 -34 237 0 493 92
687 24 51 44 95 44 98 0 29 196 234 244 256 12 6 32 16 46 24 31 18 119 19
174 3z m-524 -46 c0 -11 -50 -55 -56 -49 -6 6 36 57 47 57 5 0 9 -4 9 -8z
m176 -15 c7 -19 -76 -101 -89 -88 -6 6 4 26 28 55 39 48 52 55 61 33z m-256
-42 c-7 -9 -15 -13 -19 -10 -3 3 1 10 9 15 21 14 24 12 10 -5z m99 -17 c10
-16 11 -23 2 -26 -6 -2 -25 -15 -40 -28 -35 -29 -41 -30 -41 -5 0 17 47 81 60
81 3 0 11 -10 19 -22z m-119 -35 c0 -5 -15 -26 -33 -47 -24 -28 -39 -38 -51
-33 -16 6 -15 11 11 47 18 26 36 40 51 40 12 0 22 -3 22 -7z m153 -86 c-28
-57 -38 -64 -57 -35 -8 13 -1 26 30 61 21 24 42 41 47 37 4 -3 -5 -32 -20 -63z
m-131 -8 c13 -9 -24 -69 -43 -69 -22 0 -32 39 -13 47 8 3 14 11 14 17 0 7 6
18 12 24 10 10 14 10 17 0 2 -7 8 -16 13 -19z m-136 -84 c-24 -46 -70 -83 -81
-65 -3 5 6 25 20 46 14 20 25 41 25 45 0 5 9 9 19 9 11 0 23 5 26 11 4 6 9 8
12 6 2 -3 -7 -26 -21 -52z m207 13 c8 -11 2 -34 -19 -82 -26 -61 -54 -87 -54
-50 0 8 -4 12 -10 9 -13 -8 -13 0 0 23 5 9 19 41 32 70 23 53 33 59 51 30z
m-137 -52 c18 5 24 2 24 -10 0 -19 -40 -85 -63 -105 -40 -33 -50 36 -15 109
18 38 22 42 25 22 4 -18 9 -21 29 -16z m-156 -167 c-21 -61 -47 -99 -70 -99
-11 0 -8 16 19 106 12 38 25 59 42 68 33 17 35 3 9 -75z m216 34 c21 -30 -8
-136 -36 -131 -20 4 -24 52 -10 105 14 46 25 53 46 26z m-159 -33 c6 -23 23
-26 41 -8 31 31 4 -92 -28 -131 -17 -20 -23 -21 -36 -10 -12 10 -14 24 -9 58
3 25 7 61 8 79 2 36 16 43 24 12z m-93 -192 c-5 -54 -13 -83 -32 -110 -13 -21
-29 -38 -33 -38 -12 0 -11 127 1 135 5 3 7 12 4 19 -5 13 42 66 58 66 5 0 5
-33 2 -72z m220 -12 c-8 -62 -15 -71 -44 -56 -19 10 -21 16 -14 68 8 73 10 75
40 56 22 -15 24 -21 18 -68z m-98 -23 c-6 -55 -46 -133 -67 -133 -18 0 -29 42
-29 111 l0 72 23 -21 23 -22 24 25 c13 14 26 25 28 25 3 0 2 -26 -2 -57z m89
-133 l0 -65 -30 0 c-29 0 -30 1 -33 54 -4 70 2 83 35 79 27 -3 28 -4 28 -68z
m-225 -54 c0 -52 -26 -106 -51 -106 -5 0 -9 27 -9 60 0 47 4 64 20 80 31 31
40 24 40 -34z m130 -3 c0 -21 -11 -55 -26 -80 l-25 -44 -20 25 c-13 17 -19 40
-19 75 0 52 6 61 28 39 9 -9 16 -8 29 5 26 25 33 21 33 -20z m103 -97 c9 -57
3 -86 -15 -68 -7 7 -19 12 -29 12 -12 0 -18 12 -23 46 -7 56 -2 66 32 62 23
-3 28 -9 35 -52z m-219 -38 c12 -47 6 -105 -12 -121 -22 -20 -32 -13 -32 20 0
14 -4 32 -10 42 -7 14 -4 24 10 39 11 12 20 26 20 32 0 19 18 10 24 -12z m126
-56 c0 -27 -6 -56 -13 -66 -12 -16 -14 -15 -33 11 -11 15 -23 38 -26 51 -5 18
-2 22 18 22 14 0 27 7 30 15 12 30 24 14 24 -33z m120 -64 c7 -29 15 -59 17
-65 3 -8 -4 -13 -20 -13 -30 0 -35 7 -58 72 -19 52 -17 58 21 58 23 0 28 -6
40 -52z m-196 -113 c1 -30 -3 -40 -14 -40 -8 0 -16 10 -18 23 -2 12 -8 22 -13
22 -15 0 -10 49 8 77 l18 26 8 -34 c5 -19 10 -52 11 -74z m110 49 c12 -30 7
-94 -7 -94 -18 0 -43 28 -56 63 -10 26 -9 27 14 21 19 -5 25 -2 25 10 0 21 16
21 24 0z m124 -61 c6 -10 13 -33 17 -50 6 -29 4 -33 -14 -33 -14 0 -25 11 -36
36 -8 20 -15 43 -15 50 0 20 38 17 48 -3z m-35 -119 c10 -11 9 -64 -2 -64 -12
0 -71 59 -71 71 0 5 7 12 15 15 9 4 15 19 16 38 l0 31 17 -42 c9 -23 20 -45
25 -49z m-122 0 c27 -56 19 -67 -18 -24 -32 38 -42 60 -35 78 7 19 27 -2 53
-54z m225 -19 c17 -36 53 -71 158 -153 24 -18 25 -22 10 -22 -41 0 -244 176
-230 198 14 24 45 12 62 -23z m-26 -65 c6 -10 30 -33 55 -50 25 -17 45 -37 45
-45 0 -25 -37 -17 -84 18 -37 26 -45 38 -45 65 -1 36 13 42 29 12z m-103 -20
c14 -16 32 -30 40 -30 7 0 13 -7 13 -15 0 -19 -36 -20 -47 -2 -4 8 -20 22 -35
32 -16 9 -28 24 -28 31 0 24 29 16 57 -16z"/>
<path d="M805 1196 c-12 -18 -15 -47 -13 -132 l3 -109 88 -3 c49 -1 87 -6 85
-10 -85 -163 -120 -262 -116 -328 l3 -49 87 0 c47 0 89 3 92 6 3 3 13 43 22
90 14 78 78 249 93 249 3 0 12 13 19 28 6 16 21 37 31 49 38 40 71 138 71 208
l0 25 -225 0 -225 0 -15 -24z m425 -63 c0 -56 -2 -61 -63 -138 -75 -95 -138
-238 -145 -327 l-4 -58 -64 0 -64 0 0 33 c0 17 11 61 24 97 42 112 93 244 110
281 25 59 -5 69 -43 14 -23 -34 -26 -35 -87 -35 l-64 0 0 95 0 95 200 0 200 0
0 -57z"/>
<path d="M1318 1058 c-39 -42 -54 -73 -61 -130 -7 -51 8 -108 28 -108 7 0 15
-7 19 -15 4 -12 -3 -15 -32 -15 -54 0 -62 -13 -62 -97 0 -67 2 -76 26 -98 25
-24 34 -25 145 -25 83 0 120 4 126 13 4 6 16 17 27 22 26 15 56 101 56 165 0
47 -4 58 -25 74 -36 27 -32 46 10 46 l35 0 0 85 c0 73 -3 86 -17 91 -10 3 -26
10 -35 15 -10 5 -61 9 -114 9 -95 0 -96 0 -126 -32z m232 -21 c21 -11 25 -21
28 -65 l3 -52 -45 0 c-39 0 -45 3 -48 23 -2 17 -11 23 -36 25 -27 3 -34 -1
-42 -23 -17 -43 -12 -52 35 -65 24 -7 50 -19 57 -27 7 -8 22 -19 35 -24 20 -7
23 -15 23 -63 0 -30 -4 -58 -10 -61 -5 -3 -10 -14 -10 -24 0 -10 -14 -30 -32
-45 -28 -23 -40 -26 -107 -26 -150 0 -160 6 -164 98 l-2 42 52 0 c29 0 63 -5
77 -11 30 -14 76 -4 76 17 0 22 -20 39 -62 53 -20 7 -48 21 -62 32 -22 18 -26
28 -26 75 0 48 4 58 36 94 l36 40 82 0 c45 0 92 -6 106 -13z"/>
<path d="M1638 1063 c-1 -16 0 -58 1 -95 2 -37 -1 -72 -5 -80 -4 -7 -7 -29 -5
-50 2 -24 -2 -38 -9 -38 -9 0 -11 -25 -8 -89 3 -78 6 -91 28 -114 24 -26 29
-27 133 -27 105 0 108 1 119 25 6 14 15 25 19 25 13 0 49 86 59 139 16 85 21
106 32 146 6 22 17 47 24 55 7 8 15 41 19 73 l7 57 -206 0 -206 0 -2 -27z
m172 -33 c0 -12 -8 -35 -17 -53 -23 -42 -39 -124 -42 -208 l-2 -69 40 0 c35 0
41 3 41 21 0 12 7 48 15 81 9 32 19 101 23 151 l7 92 73 3 c72 3 72 3 72 -23
0 -14 -8 -35 -18 -46 -24 -25 -39 -74 -53 -175 -20 -148 -49 -186 -146 -192
-34 -3 -83 -1 -107 2 -40 6 -46 11 -56 42 -9 26 -9 47 -1 79 6 24 11 60 11 79
0 20 7 54 17 77 13 33 14 46 5 60 -13 20 -16 81 -5 92 3 4 37 7 75 7 62 0 68
-2 68 -20z m26 -102 c-3 -24 -9 -78 -13 -121 -6 -78 -20 -104 -44 -80 -10 10
12 169 31 218 16 42 33 30 26 -17z"/>
</g>
</svg>
