<?xml version="1.0" standalone="no"?>
<!DOCTYPE svg PUBLIC "-//W3C//DTD SVG 20010904//EN"
 "http://www.w3.org/TR/2001/REC-SVG-20010904/DTD/svg10.dtd">
<svg version="1.0" xmlns="http://www.w3.org/2000/svg"
 width="900.000000pt" height="900.000000pt" viewBox="0 0 900.000000 900.000000"
 preserveAspectRatio="xMidYMid meet">

<g transform="translate(0.000000,900.000000) scale(0.100000,-0.100000)"
fill="#000000" stroke="none">
<path d="M4190 8989 c-624 -52 -1121 -185 -1648 -439 -918 -443 -1645 -1169
-2087 -2084 -610 -1258 -606 -2705 9 -3952 354 -717 891 -1330 1543 -1760 244
-161 570 -332 823 -432 1472 -582 3118 -362 4377 585 565 425 1019 975 1334
1616 513 1046 599 2260 237 3367 -318 973 -941 1795 -1788 2357 -492 327
-1080 567 -1645 672 -380 71 -827 98 -1155 70z m465 -1119 c370 -19 695 -84
1025 -207 853 -317 1566 -998 1925 -1838 158 -370 244 -746 264 -1158 54
-1103 -418 -2134 -1294 -2828 -108 -85 -315 -222 -450 -297 -843 -470 -1889
-546 -2805 -205 -651 242 -1231 702 -1625 1288 -406 604 -602 1314 -564 2045
17 335 72 626 178 931 446 1290 1642 2196 2996 2268 83 4 152 9 155 9 3 1 91
-3 195 -8z"/>
<path d="M4340 7569 c-559 -28 -1072 -199 -1545 -514 -768 -511 -1264 -1339
-1355 -2260 -23 -229 -12 -563 26 -795 224 -1369 1361 -2430 2744 -2560 149
-14 446 -14 591 0 309 31 616 109 899 230 1035 442 1750 1416 1860 2533 14
140 14 440 0 587 -77 823 -490 1588 -1138 2108 -495 397 -1129 642 -1727 667
-71 3 -148 7 -170 9 -22 1 -105 -1 -185 -5z m-44 -826 c19 -128 -19 -715 -56
-873 -25 -102 -96 -210 -178 -269 -16 -11 -56 -27 -88 -36 -73 -19 -146 -9
-294 41 -195 65 -264 108 -535 334 -135 113 -245 207 -245 210 0 3 30 33 68
66 339 300 748 492 1192 559 135 20 128 22 136 -32z m609 21 c317 -54 655
-195 923 -385 99 -71 236 -185 301 -253 l44 -45 -24 -21 c-227 -194 -538 -414
-709 -500 -174 -88 -335 -78 -445 28 -88 85 -158 234 -197 422 -19 89 -19 118
-13 433 5 240 11 337 19 337 6 0 52 -7 101 -16z m-2237 -1051 c146 -107 307
-248 458 -398 118 -117 162 -169 205 -240 52 -86 54 -93 57 -171 3 -66 0 -90
-18 -131 -39 -93 -197 -221 -384 -313 -100 -49 -118 -54 -423 -116 -175 -35
-325 -67 -334 -69 -22 -7 -29 49 -29 229 0 306 64 617 185 900 58 137 184 366
201 366 3 0 40 -26 82 -57z m3816 -46 c11 -17 45 -84 76 -147 161 -322 240
-661 240 -1022 0 -116 -15 -306 -24 -315 -6 -6 -311 58 -442 92 -171 45 -415
129 -485 166 -133 71 -209 173 -209 279 0 202 156 467 375 638 55 43 176 138
269 210 93 73 171 132 175 132 3 0 15 -15 25 -33z m-1724 -322 c313 -99 537
-340 617 -661 25 -102 23 -313 -5 -419 -30 -112 -110 -266 -185 -355 -113
-135 -279 -243 -447 -290 -95 -27 -288 -38 -386 -21 -330 58 -605 294 -707
611 -154 476 115 992 593 1134 119 35 118 35 285 31 130 -2 161 -6 235 -30z
m-1313 -1469 c87 -34 145 -82 180 -150 35 -68 44 -228 19 -356 -40 -205 -46
-222 -194 -527 -80 -167 -149 -303 -154 -303 -16 0 -177 116 -281 202 -237
197 -431 445 -576 736 -51 101 -115 252 -109 257 6 6 146 45 263 73 256 64
516 102 665 98 97 -3 126 -8 187 -30z m2881 -94 c172 -44 316 -82 319 -86 16
-15 -122 -300 -214 -443 -171 -266 -419 -514 -689 -688 -47 -30 -86 -55 -88
-55 -7 0 -169 335 -214 445 -71 172 -139 379 -152 460 -11 68 -7 131 10 170 5
11 16 44 25 73 21 67 52 96 140 133 151 64 240 79 420 74 124 -3 145 -8 443
-83z m-1758 -497 c126 -64 246 -170 349 -307 23 -31 107 -190 186 -355 l144
-298 -72 -23 c-362 -115 -801 -132 -1182 -46 -114 26 -264 71 -278 84 -20 18
173 420 303 635 121 200 185 269 300 324 65 31 174 25 250 -14z"/>
<path d="M4355 4961 c-88 -32 -134 -60 -195 -121 -97 -97 -140 -202 -140 -340
0 -138 43 -243 140 -340 95 -95 203 -140 335 -140 140 0 249 44 345 140 151
151 184 375 84 573 -32 61 -130 159 -191 191 -116 58 -274 74 -378 37z"/>
</g>
</svg>
